# xmcd
#
# Track frame offsets: 
#        150
#        14277
#        25606
#        41451
#        58470
#        72222
#        85804
#        102938
#        116194
#        131405
#        149028
#        164264
#        176193
#        192243
#
# Disc length: 2735 seconds
#
# Revision: 0
# Processed by: cddbd v1.5.2PL0 Copyright (c) Steve Scherf et al.
# Submitted via: ExactAudioCopy v1.0b3
#
DISCID=c80aad0e
DTITLE=トワ・エ・モア - トワ エ モア ベスト
DYEAR=2010
DGENRE=Folk
TTITLE0=或る日突然
TTITLE1=空よ
TTITLE2=虹と雪のバラード
TTITLE3=美しい誤解
TTITLE4=初恋の人に似ている
TTITLE5=愛の泉
TTITLE6=フランシーヌの場合
TTITLE7=希望
TTITLE8=悲しみは駆け足でやってくる
TTITLE9=禁じられた恋
TTITLE10=風
TTITLE11=竹田の子守唄
TTITLE12=白いブランコ
TTITLE13=誰もいない海
EXTD=
EXTT0=
EXTT1=
EXTT2=
EXTT3=
EXTT4=
EXTT5=
EXTT6=
EXTT7=
EXTT8=
EXTT9=
EXTT10=
EXTT11=
EXTT12=
EXTT13=
PLAYORDER=
